<?xml version="1.0" encoding="utf-8"?>
<!-- Svg Vector Icons : http://www.onlinewebfonts.com/icon -->
<!DOCTYPE svg PUBLIC "-//W3C//DTD SVG 1.1//EN" "http://www.w3.org/Graphics/SVG/1.1/DTD/svg11.dtd">
<svg version="1.1" xmlns="http://www.w3.org/2000/svg" xmlns:xlink="http://www.w3.org/1999/xlink" x="0px" y="0px" viewBox="0 0 1000 1000" enable-background="new 0 0 1000 1000" xml:space="preserve">
<metadata> Svg Vector Icons : http://www.onlinewebfonts.com/icon </metadata>
<g><path d="M862.3,604.6c28.1-45.8,67.4-161.4,32.1-297c-15.3-64.2-57-117.2-118-151.7c-64.2-36.1-139.7-44.2-212.8-21.7c-1.6,0.8-2.4,0.8-2.4,0.8c-90.7,32.1-150.1,94.7-167,180.6c-14.5,69,1.6,142.9,36.9,179c12,16.9,52.2,65,119.6,77.9c30.5,6.4,81.9,5.6,139.7-34.5c19.3-16.1,24.9-44.2,12-66.6c-16.1-22.5-45.8-27.3-69-12c-23.3,16.9-45.8,23.3-64.2,19.3c-36.9-6.4-61-42.5-61-42.5c-2.4-3.2-5.6-5.6-8-8c-7.2-7.2-22.5-50.6-12-98.7c12-48.2,48.2-84.3,102.8-104.4c48.2-14.5,98.8-10.4,138.9,14.5c36.9,20.9,61.8,53,72.3,92.3c28.1,108.4-5.6,197.5-20.9,224C612.7,828.6,69.1,777.2,63.5,776.4c-27.3-3.2-50.6,15.3-53,41.7c-4,26.5,16.1,49.8,43.4,52.2c5.6,0.8,53,4.8,122,4.8C363.8,875.2,716.2,843.1,862.3,604.6L862.3,604.6z M274.7,424.8c16.9,0,32.1-7.2,43.4-19.3c9.6-11.2,16.9-26.5,16.9-42.5c0-15.3-7.2-31.3-16.9-42.5c-11.2-12-26.5-17.7-43.4-17.7c-16.1,0-30.5,5.6-44.2,17.7c-10.4,11.2-16.9,27.3-16.9,42.5c0,16.1,6.4,31.3,16.9,42.5C244.1,417.6,258.6,424.8,274.7,424.8L274.7,424.8z M904.9,723.4c-22.5,0-42.6,20.1-42.6,44.2v12c0,23.3,20.1,42.5,42.6,42.5c23.3,0,43.4-19.3,43.4-42.5v-12C948.3,743.5,928.2,723.4,904.9,723.4L904.9,723.4z M765.2,802.9c-20.1,0-35.3,15.3-35.3,34.5v5.6c0,20.1,15.3,35.3,35.3,35.3c18.5,0,33.7-15.3,33.7-35.3v-5.6C798.9,818.2,783.7,802.9,765.2,802.9L765.2,802.9z M323.6,505.1c0-17.7-13.6-31.3-30.5-31.3c-16.9,0-29.7,13.6-29.7,31.3v5.6c0,15.3,12.8,29.7,29.7,29.7s30.5-14.5,30.5-29.7V505.1z M216.8,656c27.3,0,48.2-21.7,48.2-49.8v-8c0-27.3-20.9-48.2-48.2-48.2c-25.7,0-46.6,20.9-46.6,48.2v8C170.3,634.3,191.2,656,216.8,656L216.8,656z M363,688.1c25.7,0,47.4-19.3,47.4-46.6v-8.8c0-27.3-21.7-48.2-47.4-48.2c-27.3,0-47.4,20.9-47.4,48.2v8.8C315.6,668.8,335.7,688.1,363,688.1L363,688.1z M578.9,348.5v2.4c0,28.9,21.7,52.2,52.2,52.2c28.9,0,52.2-23.3,52.2-52.2v-2.4c0-28.1-23.3-51.4-52.2-51.4C600.6,297.1,578.9,320.4,578.9,348.5L578.9,348.5z M955.5,595C937,595,921,611,921,630.3v5.6c0,19.3,16.1,35.3,34.5,35.3c19.3,0,34.5-16.1,34.5-35.3v-5.6C990,611,974.7,595,955.5,595L955.5,595z M511.5,622.3v-4c0-17.7-13.6-30.5-31.3-30.5c-16.1,0-28.9,12.8-28.9,30.5v4c0,17.7,12.8,32.1,28.9,32.1C497.8,654.4,511.5,639.9,511.5,622.3L511.5,622.3z M759.6,389.5v-9.6c0-14.5-11.2-25.7-26.5-25.7c-13.6,0-24.1,11.2-24.1,25.7v9.6c0,14.5,10.4,25.7,24.1,25.7C748.3,415.2,759.6,403.9,759.6,389.5z"/></g>
</svg>