<?xml version="1.0" encoding="utf-8"?>
<!-- Generator: Adobe Illustrator 16.0.0, SVG Export Plug-In . SVG Version: 6.00 Build 0)  -->
<!DOCTYPE svg PUBLIC "-//W3C//DTD SVG 1.1//EN" "http://www.w3.org/Graphics/SVG/1.1/DTD/svg11.dtd">
<svg version="1.1" id="Layer_2" xmlns="http://www.w3.org/2000/svg" xmlns:xlink="http://www.w3.org/1999/xlink" x="0px" y="0px"
	 width="864px" height="864px" viewBox="0 0 864 864" enable-background="new 0 0 864 864" xml:space="preserve">
<g>
	<path d="M355.629,287.665c-19.6,27.6-50.799,99.199-63.199,131.198c28.399-28.8,57.199-75.999,72.799-113.198
		C373.229,287.265,377.229,256.865,355.629,287.665z"/>
	<path d="M545.224,402.863c-10.399,12.8-20.399,30.4-23.999,37.6c7.199,0,27.999-5.601,42.398-17.6
		C596.423,395.263,594.424,343.264,545.224,402.863z"/>
	<path d="M414.025,495.662c2.4,4.399,8.8,7.6,16,7.6h2.4c-0.4-6.801-1.6-12.801-3.6-18c-1.6-3.6-4-7.199-6-9.6L414.025,495.662z"/>
	<path d="M689.146,120.722 M594.253,121.195c-82.741,29.279-167.33,114.226-167.33,114.226s-81.024-85.12-160.841-114.832
		c-43.582-18.088-97.764,0.134-97.764,0.134C-85.128,208.51,137.998,594.26,426.802,786.73
		c323.07-218.643,516.929-585.496,262.343-666.722C646.5,105.167,594.253,121.195,594.253,121.195z M399.626,325.264
		c9.2,0,15.6,7.2,14,16.4c-1.6,9.2-10,16.399-19.2,16.399c-9.2,0-15.2-7.2-14-16.399
		C382.027,332.464,390.827,325.264,399.626,325.264z M605.223,434.062c-14.799,32-31.999,76.398-76.398,76.398
		c-20,0-38-13.199-38.399-38.398c-0.03-1.791,0.027-3.619,0.149-5.471c-13.166,23.104-29.566,42.67-48.949,42.67
		c4.8,55.999-25.6,140.798-68.799,138.798c-11.2-0.4-20.4-4.801-20.8-20.8c-0.8-26,17.6-74.399,41.199-129.998
		c-0.668-1.018-1.251-2.064-1.771-3.13c-8.326,8.754-17.676,14.729-27.827,14.729c-22.515,0-28.131-17.572-25.982-35.134
		c-11.894,18.771-28.438,35.934-51.214,35.934c-44.799,0-25.6-54.799-18.8-78.799c12.4-44.799,37.6-102.398,60.799-141.198
		c28.4-47.599,71.599-41.999,42.799,22c-18.399,41.199-42.799,84.398-81.999,119.998c-2,6.8-6,16.4-8.4,26.4
		c-12,47.999,20,54.799,41.199,25.199c13.118-18.683,24.258-40.126,29.499-50.599l16.098-41c3.2-7.6-2.4-14.8-4-16.8l22-0.4
		c12.8,0,12.8,4.4,8.4,14l-32,74.798c0,0-4,8.801-4.8,11.6c-3.6,13.2-2.8,24.4,8.4,25.2c6,0.8,13.6-3.601,18-7.601
		c1.775-1.775,3.551-3.767,5.321-5.928c-1.943-10.321,1.478-20.745,7.078-24.871c3.412-2.729,7.696-4.579,12.108-4.57
		c4.568-8.202,8.966-16.778,13.092-25.029c0.554-1.247,1.181-2.187,1.818-2.859c25.018-54.999,50.564-107.501,69.379-142.739
		c8.801-17.2,17.2-28,34-28c4.8,0,11.6,2.8,17.6,2c-25.199,23.6-77.199,115.998-117.198,205.997c5.2,6.399,10,16,12.8,29.999
		l1.2,5.201c21.687,1.445,42.394-34.67,55.923-62.304c5.574-15.147,14.361-30.141,24.477-42.095c20.399-24,50.799-39.2,68.398-26
		c15.199,11.6,3.6,38.799-22,58.399c-12.399,9.2-38.398,17.599-49.199,17.599c-6,14.4-12.799,54.8,13.6,54.8
		c35.2,0,56.8-47.199,66-68.399C601.223,426.462,609.223,425.663,605.223,434.062z"/>
	<path d="M410.025,504.461c-14,35.2-26.799,72.399-33.199,98.799c-10.8,46.399,7.6,38.8,23.2,18c19.6-25.6,34-74.799,33.199-110.398
		C425.225,511.661,415.226,508.861,410.025,504.461z"/>
</g>
</svg>
