<?xml version="1.0" encoding="UTF-8" standalone="no"?>
<!-- Created with Inkscape (http://www.inkscape.org/) -->
<svg
   xmlns:dc="http://purl.org/dc/elements/1.1/"
   xmlns:cc="http://web.resource.org/cc/"
   xmlns:rdf="http://www.w3.org/1999/02/22-rdf-syntax-ns#"
   xmlns:svg="http://www.w3.org/2000/svg"
   xmlns="http://www.w3.org/2000/svg"
   xmlns:xlink="http://www.w3.org/1999/xlink"
   xmlns:sodipodi="http://sodipodi.sourceforge.net/DTD/sodipodi-0.dtd"
   xmlns:inkscape="http://www.inkscape.org/namespaces/inkscape"
   height="384.79999"
   width="571.54999"
   id="svg2"
   sodipodi:version="0.32"
   inkscape:version="0.44.1"
   sodipodi:docbase="D:\dokumenty\kot\do wiki\upload"
   sodipodi:docname="Bucket in the sand.svg"
   version="1.0">
  <defs
     id="defs4">
    <linearGradient
       id="linearGradient16230">
      <stop
         style="stop-color:#671c1c;stop-opacity:1;"
         offset="0"
         id="stop16232" />
      <stop
         style="stop-color:#c65b5b;stop-opacity:1;"
         offset="1"
         id="stop16234" />
    </linearGradient>
    <linearGradient
       inkscape:collect="always"
       id="linearGradient10906">
      <stop
         style="stop-color:#b3b3b3;stop-opacity:1"
         offset="0"
         id="stop10908" />
      <stop
         style="stop-color:gray;stop-opacity:1"
         offset="1"
         id="stop10910" />
    </linearGradient>
    <linearGradient
       id="linearGradient7346">
      <stop
         style="stop-color:#630000;stop-opacity:1"
         offset="0"
         id="stop7348" />
      <stop
         style="stop-color:#e22525;stop-opacity:1;"
         offset="1"
         id="stop7350" />
    </linearGradient>
    <linearGradient
       inkscape:collect="always"
       xlink:href="#linearGradient7346"
       id="linearGradient7352"
       x1="458.00671"
       y1="361.31644"
       x2="526.92041"
       y2="361.31644"
       gradientUnits="userSpaceOnUse" />
    <linearGradient
       inkscape:collect="always"
       xlink:href="#linearGradient7346"
       id="linearGradient9130"
       x1="526.92041"
       y1="318.49481"
       x2="457.78647"
       y2="318.49481"
       gradientUnits="userSpaceOnUse" />
    <linearGradient
       inkscape:collect="always"
       xlink:href="#linearGradient10906"
       id="linearGradient10912"
       x1="192.19234"
       y1="303.85968"
       x2="274.9187"
       y2="303.85968"
       gradientUnits="userSpaceOnUse" />
    <linearGradient
       inkscape:collect="always"
       xlink:href="#linearGradient16230"
       id="linearGradient16236"
       x1="35.87326"
       y1="293.83475"
       x2="54.830772"
       y2="293.83475"
       gradientUnits="userSpaceOnUse" />
    <linearGradient
       inkscape:collect="always"
       xlink:href="#linearGradient10906"
       id="linearGradient19803"
       gradientUnits="userSpaceOnUse"
       x1="192.19234"
       y1="303.85968"
       x2="274.9187"
       y2="303.85968" />
    <linearGradient
       inkscape:collect="always"
       xlink:href="#linearGradient16230"
       id="linearGradient19805"
       gradientUnits="userSpaceOnUse"
       x1="35.87326"
       y1="293.83475"
       x2="54.830772"
       y2="293.83475" />
    <linearGradient
       inkscape:collect="always"
       xlink:href="#linearGradient7346"
       id="linearGradient19807"
       gradientUnits="userSpaceOnUse"
       x1="458.00671"
       y1="361.31644"
       x2="526.92041"
       y2="361.31644" />
    <linearGradient
       inkscape:collect="always"
       xlink:href="#linearGradient7346"
       id="linearGradient19809"
       gradientUnits="userSpaceOnUse"
       x1="526.92041"
       y1="318.49481"
       x2="457.78647"
       y2="318.49481" />
  </defs>
  <sodipodi:namedview
     id="base"
     pagecolor="#ffffff"
     bordercolor="#666666"
     borderopacity="1.0"
     inkscape:pageopacity="0.0"
     inkscape:pageshadow="2"
     inkscape:cx="148.10765"
     inkscape:cy="347.46462"
     inkscape:zoom="2.5391655"
     inkscape:document-units="px"
     inkscape:current-layer="layer1"
     inkscape:window-width="1024"
     inkscape:window-height="682"
     inkscape:window-x="-4"
     inkscape:window-y="-4"
     width="571.55px"
     height="384.8px" />
  <metadata
     id="metadata7">
    <rdf:RDF>
      <cc:Work
         rdf:about="">
        <dc:format>image/svg+xml</dc:format>
        <dc:type
           rdf:resource="http://purl.org/dc/dcmitype/StillImage" />
      </cc:Work>
    </rdf:RDF>
  </metadata>
  <g
     inkscape:groupmode="layer"
     inkscape:label="Warstwa 1"
     id="layer1"
     transform="translate(-135.4779,-143.5346)">
    <g
       id="g19788"
       transform="matrix(1.387227,0,0,1.387227,-51.46054,-54.58189)">
      <path
         sodipodi:nodetypes="cssssssssssssssssssssssssssssssssc"
         id="path1988"
         d="M 278.62599,380.15794 C 276.42023,382.36369 244.28753,390.81576 233.71088,390.81576 C 225.84439,390.81576 217.9779,390.81576 210.11141,390.81576 C 203.5137,390.81576 196.916,390.81576 190.3183,390.81576 C 184.22812,390.81576 178.13793,390.81576 172.04775,390.81576 C 167.22635,390.81576 162.40495,390.81576 157.58355,390.81576 C 154.88628,390.81576 149.65487,385.70951 147.687,384.72558 C 146.23372,383.99894 164.40444,379.39667 168.24138,379.39667 C 175.1632,379.39667 177.58908,378.39817 182.70557,376.35157 C 183.67701,375.963 184.73563,375.84406 185.75066,375.5903 C 192.4671,373.91119 198.92525,368.03665 204.78249,365.69375 C 210.79551,363.28854 218.49767,356.73959 223.81432,352.7521 C 229.31669,348.62533 235.55458,348.62458 240.56233,343.61682 C 245.03575,339.14341 255.46647,337.50292 261.11671,335.24282 C 270.81216,331.36464 280.80631,329.96566 290.04509,325.34627 C 300.07394,320.33184 323.22647,322.30117 334.19894,322.30117 C 344.85676,322.30117 355.51459,322.30117 366.17241,322.30117 C 376.06897,322.30117 385.96552,322.30117 395.86207,322.30117 C 403.50667,322.30117 412.76551,323.09353 420.22281,324.58499 C 424.9767,325.53577 426.54442,332.31344 430.88064,334.48155 C 431.89567,334.98906 432.9107,335.49658 433.92573,336.00409 C 440.56515,339.3238 447.99947,345.90064 455.24138,345.90064 C 463.96381,345.90064 468.89755,350.83723 476.55703,352.7521 C 486.7638,355.3038 496.6181,368.74737 505.48541,374.06775 C 512.36093,378.19306 524.78235,384.62707 527.56233,391.57704 C 528.37013,393.59652 540.16536,394.15684 542.02653,394.62213 C 548.65891,396.28023 544.92557,400.71232 538.98143,400.71232 C 532.38373,400.71232 525.78603,400.71232 519.18833,400.71232 C 510.30681,400.71232 501.42529,400.71232 492.54377,400.71232 C 474.27321,400.71232 456.00265,400.71232 437.7321,400.71232 C 410.32626,400.71232 382.92042,400.71232 355.51459,400.71232 C 339.02034,400.71232 323.28735,389.29322 306.7931,389.29322 C 297.53009,389.29322 292.22678,388.7956 283.9549,385.48685 C 279.53908,383.72052 279.72099,385.63292 278.62599,380.15794 z "
         style="opacity:1;color:black;fill:#f7bd00;fill-opacity:1;fill-rule:nonzero;stroke:black;stroke-width:1;stroke-linecap:round;stroke-linejoin:miter;marker:none;marker-start:none;marker-mid:none;marker-end:none;stroke-miterlimit:4;stroke-dasharray:none;stroke-dashoffset:0;stroke-opacity:1;visibility:visible;display:inline;overflow:visible" />
      <path
         sodipodi:nodetypes="csccsssccsc"
         id="path2896"
         d="M 492.0625,277.96875 C 472.36588,277.96875 456.46875,294.83464 456.46875,316.78125 C 456.46875,321.3916 457.1425,325.82506 458.40625,329.96875 L 466.0625,327.65625 C 465.02937,324.26871 464.46875,320.60132 464.46875,316.78125 C 464.46875,298.59658 476.69032,282.92366 491.87218,282.92366 C 507.05405,282.92366 519.65625,298.59658 519.65625,316.78125 C 519.65622,320.05572 519.23819,323.22008 518.46875,326.1875 L 526.21875,328.1875 C 527.15805,324.565 527.65622,320.73303 527.65625,316.78125 C 527.65625,294.83464 511.75912,277.96876 492.0625,277.96875 z "
         style="fill:black;fill-opacity:1;stroke:none;stroke-width:8;stroke-linecap:butt;stroke-linejoin:miter;stroke-miterlimit:4;stroke-opacity:1" />
      <path
         id="path18899"
         d="M 199.77191,380.32612 C 204.04473,383.53073 225.37845,380.47878 229.02721,378.65439 C 235.40946,375.46327 241.85672,373.34767 246.58039,368.624"
         style="opacity:1;color:black;fill:none;fill-opacity:1;fill-rule:nonzero;stroke:black;stroke-width:1;stroke-linecap:round;stroke-linejoin:miter;marker:none;marker-start:none;marker-mid:none;marker-end:none;stroke-miterlimit:4;stroke-dasharray:none;stroke-dashoffset:0;stroke-opacity:1;visibility:visible;display:inline;overflow:visible" />
      <path
         sodipodi:nodetypes="csc"
         id="path18897"
         d="M 425.03773,352.74255 C 425.03773,356.09761 443.73602,357.31294 445.93437,359.84742 C 449.04632,363.43516 453.61265,364.23071 454.29304,366.95227"
         style="opacity:1;color:black;fill:none;fill-opacity:1;fill-rule:nonzero;stroke:black;stroke-width:1;stroke-linecap:round;stroke-linejoin:miter;marker:none;marker-start:none;marker-mid:none;marker-end:none;stroke-miterlimit:4;stroke-dasharray:none;stroke-dashoffset:0;stroke-opacity:1;visibility:visible;display:inline;overflow:visible" />
      <path
         id="path1986"
         d="M 207.82759,402.99613 C 216.20159,402.99613 224.5756,402.99613 232.9496,402.99613 C 241.32361,402.99613 249.69761,402.99613 258.07162,402.99613 C 266.23008,402.99613 275.35194,401.47359 283.95491,401.47359 C 292.58267,401.47359 301.21043,401.47359 309.8382,401.47359 C 319.58162,401.47359 331.07981,407.54527 340.28912,409.84759 C 349.48695,412.14705 360.59475,410.60887 369.97878,410.60887 C 380.80346,410.60887 388.13947,411.98622 398.14589,413.65396 C 408.40207,415.36332 419.86623,418.98287 430.11936,418.98287 C 437.98585,418.98287 445.85234,418.98287 453.71883,418.98287 C 461.07781,418.98287 468.43678,418.98287 475.79576,418.98287 C 480.75247,418.98287 483.75702,416.99256 487.97613,415.93778 C 492.71672,415.93778 477.62531,415.48351 474.27321,412.13141 C 470.66153,408.51973 468.70166,405.83195 467.42175,400.71232 C 466.14377,395.60041 461.56383,392.72542 459.04775,388.53194 C 455.8888,383.26704 450.7033,377.34011 446.86737,372.54521 C 443.35864,368.15929 441.73627,362.84647 437.7321,358.84229 C 435.8398,356.94999 433.38482,347.10264 431.64191,343.61682 C 429.36081,339.05462 419.5633,336.41017 414.8939,335.24282 C 410.23541,334.0782 402.79843,326.22074 400.42971,323.06245 C 396.07981,317.26259 393.53732,311.58878 389.01061,305.55316 C 385.52541,300.90623 382.22868,296.55695 379.87533,291.85025 C 377.24911,286.5978 368.1628,284.0908 363.88859,281.95369 C 356.82318,278.42099 349.79667,276.24135 341.81167,273.57969 C 340.51527,273.14756 339.27409,272.56466 338.00531,272.05714 C 329.31893,268.58259 323.67509,268.25078 314.40584,268.25078 C 307.63032,268.25078 306.01102,271.72853 303.74801,277.38606 C 300.98041,284.30506 296.08281,291.19391 293.09019,297.17916 C 291.21234,300.93484 281.98499,305.23926 279.38727,307.83698 C 276.05347,311.17078 273.64127,313.722 271.77454,316.21099 C 269.37868,319.40547 266.13769,322.18784 262.63926,323.06245 C 259.18033,323.92718 251.9552,339.86293 250.45889,342.85555 C 247.72928,348.31476 246.71559,353.4503 242.08488,358.08102 C 241.51746,358.64844 240.56233,358.58853 239.80106,358.84229 C 234.56518,360.58758 231.19324,362.06137 229.90451,367.21629 C 228.63486,372.29489 225.5485,378.97341 223.05305,383.9643 C 220.27653,389.51734 219.21806,392.36693 214.67905,396.90595 C 211.51741,400.06758 210.49981,398.54242 207.82759,402.99613 z "
         style="opacity:1;color:black;fill:#f7bd00;fill-opacity:1;fill-rule:nonzero;stroke:black;stroke-width:1;stroke-linecap:round;stroke-linejoin:miter;marker:none;marker-start:none;marker-mid:none;marker-end:none;stroke-miterlimit:4;stroke-dasharray:none;stroke-dashoffset:0;stroke-opacity:1;visibility:visible;display:inline;overflow:visible" />
      <path
         sodipodi:nodetypes="cccccz"
         d="M 260.12543,345.09021 C 232.00071,361.32802 214.03165,326.57383 214.03165,326.57383 L 192.69234,289.61305 L 245.42496,258.30787 L 266.76428,295.26865 C 266.76428,295.26865 287.8008,329.11183 260.12543,345.09021 z "
         style="color:black;fill:url(#linearGradient19803);fill-opacity:1;fill-rule:nonzero;stroke:black;stroke-width:1;stroke-linecap:round;stroke-linejoin:miter;marker:none;marker-start:none;marker-mid:none;marker-end:none;stroke-miterlimit:4;stroke-dashoffset:0;stroke-opacity:1;visibility:visible;display:inline;overflow:visible"
         id="path1990" />
      <path
         sodipodi:nodetypes="ccsccc"
         id="rect1997"
         d="M 54.330772,203.20799 L 54.330772,375.48273 C 54.330772,380.45696 50.326247,384.46149 45.352016,384.46149 C 40.377786,384.46149 36.37326,380.45696 36.37326,375.48273 L 36.37326,203.20799 C 36.37326,203.20799 54.330772,203.20799 54.330772,203.20799 z "
         inkscape:transform-center-y="58.595584"
         inkscape:transform-center-x="-50.024086"
         style="fill:url(#linearGradient19805);fill-opacity:1;stroke:black;stroke-width:1;stroke-linecap:butt;stroke-linejoin:miter;stroke-miterlimit:4;stroke-opacity:1"
         transform="matrix(0.854443,-0.519545,0.519545,0.854443,0,0)" />
      <path
         sodipodi:nodetypes="cccccc"
         d="M 458.66711,326.10754 C 459.80902,324.58499 525.1181,324.58499 526.26001,326.10754 C 527.40192,327.63009 522.07301,387.0094 522.07301,387.0094 C 522.07301,387.0094 516.36346,397.66722 492.46356,397.66722 C 468.56366,397.66722 462.85411,387.0094 462.85411,387.0094 C 462.85411,387.0094 457.5252,327.63009 458.66711,326.10754 z "
         style="color:black;fill:url(#linearGradient19807);fill-opacity:1;fill-rule:nonzero;stroke:black;stroke-width:1;stroke-linecap:round;stroke-linejoin:miter;marker:none;marker-start:none;marker-mid:none;marker-end:none;stroke-miterlimit:4;stroke-dashoffset:0;stroke-opacity:1;visibility:visible;display:inline;overflow:visible"
         id="path2889" />
      <path
         transform="translate(0,7.612732)"
         d="M 526.42043 318.49481 A 34.066975 8.3740053 0 1 1  458.28648,318.49481 A 34.066975 8.3740053 0 1 1  526.42043 318.49481 z"
         sodipodi:ry="8.3740053"
         sodipodi:rx="34.066975"
         sodipodi:cy="318.49481"
         sodipodi:cx="492.35345"
         id="path2887"
         style="fill:url(#linearGradient19809);fill-opacity:1;stroke:black;stroke-width:1;stroke-linecap:butt;stroke-linejoin:miter;stroke-miterlimit:4;stroke-dasharray:none;stroke-opacity:1"
         sodipodi:type="arc" />
      <path
         transform="matrix(0.866025,-0.5,0.5,0.866025,-55.89111,92.57426)"
         d="M 153.72619 149.397 A 9.0842829 2.8000417 0 1 1  135.55762,149.397 A 9.0842829 2.8000417 0 1 1  153.72619 149.397 z"
         sodipodi:ry="2.8000417"
         sodipodi:rx="9.0842829"
         sodipodi:cy="149.397"
         sodipodi:cx="144.64191"
         id="path2885"
         style="fill:#782121;fill-opacity:1;stroke:black;stroke-width:1;stroke-linecap:butt;stroke-linejoin:miter;stroke-miterlimit:4;stroke-dasharray:none;stroke-opacity:1"
         sodipodi:type="arc" />
      <path
         sodipodi:nodetypes="cssc"
         id="path18893"
         d="M 265.80531,381.99785 C 289.89501,370.93232 311.96932,347.76774 325.98764,371.1316 C 329.75858,377.41651 341.22662,348.56323 348.55602,348.56323 C 353.01397,348.56323 361.65124,332.68178 366.10919,332.68178"
         style="opacity:1;color:black;fill:none;fill-opacity:1;fill-rule:nonzero;stroke:black;stroke-width:1;stroke-linecap:round;stroke-linejoin:miter;marker:none;marker-start:none;marker-mid:none;marker-end:none;stroke-miterlimit:4;stroke-dasharray:none;stroke-dashoffset:0;stroke-opacity:1;visibility:visible;display:inline;overflow:visible" />
      <path
         id="path18895"
         d="M 393.69277,351.07082 C 395.84353,351.07082 393.69277,367.87597 393.69277,371.1316 C 393.69277,381.6478 396.79875,387.85127 402.05142,397.04344"
         style="opacity:1;color:black;fill:none;fill-opacity:1;fill-rule:nonzero;stroke:black;stroke-width:1;stroke-linecap:round;stroke-linejoin:miter;marker:none;marker-start:none;marker-mid:none;marker-end:none;stroke-miterlimit:4;stroke-dasharray:none;stroke-dashoffset:0;stroke-opacity:1;visibility:visible;display:inline;overflow:visible" />
      <path
         id="path18901"
         d="M 309.27033,298.41128 C 310.60039,297.74625 305.05796,305.96711 298.40407,312.621 C 293.3515,317.67357 291.7825,325.02828 289.20955,330.17418 C 288.11298,332.36731 284.39472,334.06612 282.52262,335.18937"
         style="opacity:1;color:black;fill:none;fill-opacity:1;fill-rule:nonzero;stroke:black;stroke-width:1;stroke-linecap:round;stroke-linejoin:miter;marker:none;marker-start:none;marker-mid:none;marker-end:none;stroke-miterlimit:4;stroke-dasharray:none;stroke-dashoffset:0;stroke-opacity:1;visibility:visible;display:inline;overflow:visible" />
    </g>
  </g>
</svg>
